<svg width="227" height="92" viewBox="0 0 227 92" fill="none" xmlns="http://www.w3.org/2000/svg">
<rect width="16" height="75" rx="8" fill="white"/>
<rect x="44" y="17" width="16" height="75" rx="8" fill="white"/>
<rect x="22" y="33" width="16" height="27" rx="8" fill="white"/>
<path d="M108.778 59.784C108.382 59.892 107.752 60 106.888 60.108C106.06 60.216 105.232 60.27 104.404 60.27C103.576 60.27 102.838 60.198 102.19 60.054C101.578 59.946 101.056 59.73 100.624 59.406C100.192 59.082 99.868 58.632 99.652 58.056C99.436 57.48 99.328 56.724 99.328 55.788V47.364H88.96V59.784C88.564 59.892 87.934 60 87.07 60.108C86.242 60.216 85.414 60.27 84.586 60.27C83.758 60.27 83.02 60.198 82.372 60.054C81.76 59.946 81.238 59.73 80.806 59.406C80.374 59.082 80.05 58.632 79.834 58.056C79.618 57.48 79.51 56.724 79.51 55.788V27.276C79.906 27.204 80.536 27.114 81.4 27.006C82.264 26.862 83.092 26.79 83.884 26.79C84.712 26.79 85.432 26.862 86.044 27.006C86.692 27.114 87.232 27.33 87.664 27.654C88.096 27.978 88.42 28.428 88.636 29.004C88.852 29.58 88.96 30.336 88.96 31.272V39.912H99.328V27.276C99.724 27.204 100.354 27.114 101.218 27.006C102.082 26.862 102.91 26.79 103.702 26.79C104.53 26.79 105.25 26.862 105.862 27.006C106.51 27.114 107.05 27.33 107.482 27.654C107.914 27.978 108.238 28.428 108.454 29.004C108.67 29.58 108.778 30.336 108.778 31.272V59.784ZM137.229 52.17C137.229 54.906 136.203 57.048 134.151 58.596C132.099 60.144 129.075 60.918 125.079 60.918C123.567 60.918 122.163 60.81 120.867 60.594C119.571 60.378 118.455 60.054 117.519 59.622C116.619 59.154 115.899 58.578 115.359 57.894C114.855 57.21 114.603 56.4 114.603 55.464C114.603 54.6 114.783 53.88 115.143 53.304C115.503 52.692 115.935 52.188 116.439 51.792C117.483 52.368 118.671 52.89 120.003 53.358C121.371 53.79 122.937 54.006 124.701 54.006C125.817 54.006 126.663 53.844 127.239 53.52C127.851 53.196 128.157 52.764 128.157 52.224C128.157 51.72 127.941 51.324 127.509 51.036C127.077 50.748 126.357 50.514 125.349 50.334L123.729 50.01C120.597 49.398 118.257 48.444 116.709 47.148C115.197 45.816 114.441 43.926 114.441 41.478C114.441 40.146 114.729 38.94 115.305 37.86C115.881 36.78 116.691 35.88 117.735 35.16C118.779 34.44 120.021 33.882 121.461 33.486C122.937 33.09 124.557 32.892 126.321 32.892C127.653 32.892 128.895 33 130.047 33.216C131.235 33.396 132.261 33.684 133.125 34.08C133.989 34.476 134.673 34.998 135.177 35.646C135.681 36.258 135.933 36.996 135.933 37.86C135.933 38.688 135.771 39.408 135.447 40.02C135.159 40.596 134.781 41.082 134.313 41.478C134.025 41.298 133.593 41.118 133.017 40.938C132.441 40.722 131.811 40.542 131.127 40.398C130.443 40.218 129.741 40.074 129.021 39.966C128.337 39.858 127.707 39.804 127.131 39.804C125.943 39.804 125.025 39.948 124.377 40.236C123.729 40.488 123.405 40.902 123.405 41.478C123.405 41.874 123.585 42.198 123.945 42.45C124.305 42.702 124.989 42.936 125.997 43.152L127.671 43.53C131.127 44.322 133.575 45.42 135.015 46.824C136.491 48.192 137.229 49.974 137.229 52.17ZM163.807 52.17C163.807 54.906 162.781 57.048 160.729 58.596C158.677 60.144 155.653 60.918 151.657 60.918C150.145 60.918 148.741 60.81 147.445 60.594C146.149 60.378 145.033 60.054 144.097 59.622C143.197 59.154 142.477 58.578 141.937 57.894C141.433 57.21 141.181 56.4 141.181 55.464C141.181 54.6 141.361 53.88 141.721 53.304C142.081 52.692 142.513 52.188 143.017 51.792C144.061 52.368 145.249 52.89 146.581 53.358C147.949 53.79 149.515 54.006 151.279 54.006C152.395 54.006 153.241 53.844 153.817 53.52C154.429 53.196 154.735 52.764 154.735 52.224C154.735 51.72 154.519 51.324 154.087 51.036C153.655 50.748 152.935 50.514 151.927 50.334L150.307 50.01C147.175 49.398 144.835 48.444 143.287 47.148C141.775 45.816 141.019 43.926 141.019 41.478C141.019 40.146 141.307 38.94 141.883 37.86C142.459 36.78 143.269 35.88 144.313 35.16C145.357 34.44 146.599 33.882 148.039 33.486C149.515 33.09 151.135 32.892 152.899 32.892C154.231 32.892 155.473 33 156.625 33.216C157.813 33.396 158.839 33.684 159.703 34.08C160.567 34.476 161.251 34.998 161.755 35.646C162.259 36.258 162.511 36.996 162.511 37.86C162.511 38.688 162.349 39.408 162.025 40.02C161.737 40.596 161.359 41.082 160.891 41.478C160.603 41.298 160.171 41.118 159.595 40.938C159.019 40.722 158.389 40.542 157.705 40.398C157.021 40.218 156.319 40.074 155.599 39.966C154.915 39.858 154.285 39.804 153.709 39.804C152.521 39.804 151.603 39.948 150.955 40.236C150.307 40.488 149.983 40.902 149.983 41.478C149.983 41.874 150.163 42.198 150.523 42.45C150.883 42.702 151.567 42.936 152.575 43.152L154.249 43.53C157.705 44.322 160.153 45.42 161.593 46.824C163.069 48.192 163.807 49.974 163.807 52.17ZM180.005 54.168C180.617 54.168 181.283 54.114 182.003 54.006C182.759 53.862 183.317 53.682 183.677 53.466V49.146L179.789 49.47C178.781 49.542 177.953 49.758 177.305 50.118C176.657 50.478 176.333 51.018 176.333 51.738C176.333 52.458 176.603 53.052 177.143 53.52C177.719 53.952 178.673 54.168 180.005 54.168ZM179.573 32.946C181.517 32.946 183.281 33.144 184.865 33.54C186.485 33.936 187.853 34.548 188.969 35.376C190.121 36.168 191.003 37.194 191.615 38.454C192.227 39.678 192.533 41.136 192.533 42.828V54.924C192.533 55.86 192.263 56.634 191.723 57.246C191.219 57.822 190.607 58.326 189.887 58.758C187.547 60.162 184.253 60.864 180.005 60.864C178.097 60.864 176.369 60.684 174.821 60.324C173.309 59.964 171.995 59.424 170.879 58.704C169.799 57.984 168.953 57.066 168.341 55.95C167.765 54.834 167.477 53.538 167.477 52.062C167.477 49.578 168.215 47.67 169.691 46.338C171.167 45.006 173.453 44.178 176.549 43.854L183.623 43.098V42.72C183.623 41.676 183.155 40.938 182.219 40.506C181.319 40.038 180.005 39.804 178.277 39.804C176.909 39.804 175.577 39.948 174.281 40.236C172.985 40.524 171.815 40.884 170.771 41.316C170.303 40.992 169.907 40.506 169.583 39.858C169.259 39.174 169.097 38.472 169.097 37.752C169.097 36.816 169.313 36.078 169.745 35.538C170.213 34.962 170.915 34.476 171.851 34.08C172.895 33.684 174.119 33.396 175.523 33.216C176.963 33.036 178.313 32.946 179.573 32.946ZM214.778 43.368C214.778 42.252 214.454 41.442 213.806 40.938C213.194 40.398 212.348 40.128 211.268 40.128C210.548 40.128 209.828 40.218 209.108 40.398C208.424 40.578 207.83 40.848 207.326 41.208V59.946C206.966 60.054 206.39 60.162 205.598 60.27C204.842 60.378 204.05 60.432 203.222 60.432C202.43 60.432 201.71 60.378 201.062 60.27C200.45 60.162 199.928 59.946 199.496 59.622C199.064 59.298 198.722 58.866 198.47 58.326C198.254 57.75 198.146 57.012 198.146 56.112V39.912C198.146 38.94 198.344 38.148 198.74 37.536C199.172 36.924 199.748 36.366 200.468 35.862C201.692 34.998 203.222 34.296 205.058 33.756C206.93 33.216 209 32.946 211.268 32.946C215.336 32.946 218.468 33.846 220.664 35.646C222.86 37.41 223.958 39.876 223.958 43.044V59.946C223.598 60.054 223.022 60.162 222.23 60.27C221.474 60.378 220.682 60.432 219.854 60.432C219.062 60.432 218.342 60.378 217.694 60.27C217.082 60.162 216.56 59.946 216.128 59.622C215.696 59.298 215.354 58.866 215.102 58.326C214.886 57.75 214.778 57.012 214.778 56.112V43.368Z" fill="white"/>
</svg>
